Coordinates
version=1
nRows=9
nColumns=63
inDegrees=yes

Units are S.I. units (second, meters, Newtons, ...)
If the header above contains a line with 'inDegrees', this indicates whether rotational values are in degrees (yes) or radians (no).

endheader
time	pelvis_tilt	pelvis_list	pelvis_rotation	pelvis_tx	pelvis_ty	pelvis_tz	hip_flexion_r	hip_adduction_r	hip_rotation_r	knee_angle_r	knee_angle_r_beta	ankle_angle_r	subtalar_angle_r	mtp_angle_r	hip_flexion_l	hip_adduction_l	hip_rotation_l	knee_angle_l	knee_angle_l_beta	ankle_angle_l	subtalar_angle_l	mtp_angle_l	L5_S1_Flex_Ext	L5_S1_Lat_Bending	L5_S1_axial_rotation	L4_L5_Flex_Ext	L4_L5_Lat_Bending	L4_L5_axial_rotation	L3_L4_Flex_Ext	L3_L4_Lat_Bending	L3_L4_axial_rotation	L2_L3_Flex_Ext	L2_L3_Lat_Bending	L2_L3_axial_rotation	L1_L2_Flex_Ext	L1_L2_Lat_Bending	L1_L2_axial_rotation	L1_T12_Flex_Ext	L1_T12_Lat_Bending	L1_T12_axial_rotation	Abs_r3	Abs_r2	Abs_r1	Abs_t1	Abs_t2	neck_flexion	neck_bending	neck_rotation	arm_flex_r	arm_add_r	arm_rot_r	elbow_flex_r	pro_sup_r	wrist_flex_r	wrist_dev_r	arm_flex_l	arm_add_l	arm_rot_l	elbow_flex_l	pro_sup_l	wrist_flex_l	wrist_dev_l
     11.24200000	    -50.95351976	      4.91615036	      5.83257953	     -0.35630610	      0.99293320	      0.03731812	     90.65961863	    -12.16135760	     -0.74781406	     56.20073607	      0.98088789	     -2.65624242	     -8.95345816	      0.00000000	    134.93263491	     -6.65240944	     -1.57978809	    108.53820680	      1.89434907	      8.64150235	      6.29339749	      0.00000000	     -0.08440549	     -1.07286652	     -0.62033820	     -0.15674944	     -1.42691247	     -0.65910934	     -0.13866978	     -2.60856765	     -0.65910934	     -0.09646704	     -2.60856765	     -0.54279593	     -0.07837894	     -2.18778940	     -0.50402479	     -0.04822930	     -1.66187023	     -0.46525365	     -0.60289998	    -12.13648061	     -3.45013498	      0.00000000	      0.00000000	     -0.00000000	      0.00000000	      0.00000000	     63.47526826	     -7.85450754	     -1.24637752	     36.12745605	     19.23278591	      0.00000000	      5.00000014	     74.00492242	     -6.70170525	     20.70917174	     27.45575358	     28.86739073	      0.00000000	      5.00000014
     11.25000000	    -51.01513993	      4.69554545	      5.54846317	     -0.35691170	      0.99318998	      0.03722422	     91.11170993	    -11.92423693	     -0.60377321	     58.10286356	      1.01408627	     -2.70036462	     -9.12477131	      0.00000000	    134.79899491	     -6.58698346	     -1.53647154	    106.93962051	      1.86644848	      8.55273026	      5.70388233	      0.00000000	     -0.08355106	     -1.03456850	     -0.57104277	     -0.15516267	     -1.37597611	     -0.60673294	     -0.13726603	     -2.51544986	     -0.60673294	     -0.09549050	     -2.51544986	     -0.49966242	     -0.07758551	     -2.10969209	     -0.46397225	     -0.04774107	     -1.60254661	     -0.42828208	     -0.59679685	    -11.70324584	     -3.17596858	      0.00000000	      0.00000000	     -0.00000000	      0.00000000	      0.00000000	     63.65453665	     -7.91199967	     -1.20795776	     36.17394371	     19.35337877	      0.00000000	      5.00000014	     74.00133260	     -6.71415726	     20.68439854	     27.63847118	     28.91538545	      0.00000000	      5.00000014
     11.25800000	    -51.08930490	      4.46781817	      5.60321303	     -0.35756466	      0.99362608	      0.03668339	     91.71230849	    -12.06096079	     -0.60415314	     60.18037070	      1.05034561	     -3.34731139	     -9.90974416	      0.00000000	    134.43228511	     -6.21347175	     -1.86915422	    105.07557697	      1.83391478	      8.05350942	      4.05053801	      0.00000000	     -0.08530483	     -0.99487544	     -0.59406088	     -0.15841960	     -1.32318434	     -0.63118968	     -0.14014731	     -2.41894016	     -0.63118968	     -0.09749489	     -2.41894016	     -0.51980327	     -0.07921407	     -2.02875001	     -0.48267446	     -0.04874318	     -1.54106206	     -0.44554566	     -0.60932388	    -11.25423001	     -3.30398839	      0.00000000	      0.00000000	     -0.00000000	      0.00000000	      0.00000000	     63.88368087	     -7.95113649	     -0.86620957	     36.13422316	     19.39827213	      0.00000000	      5.00000014	     73.96038102	     -6.76466820	     20.42690306	     27.84176400	     28.83751357	      0.00000000	      5.00000014
     11.26700000	    -51.10371882	      4.17677589	      5.06580846	     -0.35808539	      0.99371430	      0.03700071	     92.26928403	    -11.52606523	     -0.46590958	     62.29430388	      1.08724071	     -3.24431614	     -9.90632101	      0.00000000	    134.04274171	     -6.26045044	     -1.50734728	    103.34187916	      1.80365605	      8.11020174	      3.69626256	      0.00000000	     -0.08436360	     -0.94693276	     -0.49612983	     -0.15667165	     -1.25942057	     -0.52713795	     -0.13860096	     -2.30237232	     -0.52713795	     -0.09641916	     -2.30237232	     -0.43411360	     -0.07834004	     -1.93098529	     -0.40310549	     -0.04820536	     -1.46679885	     -0.37209738	     -0.60260078	    -10.71189279	     -2.75932530	      0.00000000	      0.00000000	     -0.00000000	      0.00000000	      0.00000000	     64.05033172	     -8.01359874	     -0.84998479	     36.23689215	     19.55199581	      0.00000000	      5.00000014	     73.93471553	     -6.74677758	     20.36911725	     28.01192515	     28.89849821	      0.00000000	      5.00000014
     11.27500000	    -51.12243485	      3.80158115	      4.91168092	     -0.35866603	      0.99389144	      0.03672794	     92.98549140	    -11.45049889	     -0.53038917	     64.62355859	      1.12789387	     -3.76615882	    -10.17081410	      0.00000000	    133.41484721	     -5.93424820	     -1.38944370	    101.33163559	      1.76857068	      8.26495668	      3.03090493	      0.00000000	     -0.08477459	     -0.88680388	     -0.47767037	     -0.15743488	     -1.17944917	     -0.50752477	     -0.13927617	     -2.15617496	     -0.50752477	     -0.09688887	     -2.15617496	     -0.41796158	     -0.07872168	     -1.80837048	     -0.38810718	     -0.04844020	     -1.37365922	     -0.35825278	     -0.60553639	    -10.03170290	     -2.65665931	      0.00000000	      0.00000000	     -0.00000000	      0.00000000	      0.00000000	     64.28433373	     -8.03305647	     -0.65426578	     36.23776103	     19.66230723	      0.00000000	      5.00000014	     73.89250708	     -6.71713494	     20.05607567	     28.07183174	     28.86355088	      0.00000000	      5.00000014
     11.28300000	    -51.09172608	      3.48010402	      4.34607534	     -0.35903660	      0.99382185	      0.03716438	     93.66150724	    -10.90776853	     -0.51602162	     66.93454640	      1.16822822	     -3.69189881	    -10.24710741	      0.00000000	    132.74421272	     -5.99888356	     -0.94767636	     99.42138895	      1.73523058	      8.33323772	      2.75422091	      0.00000000	     -0.08477100	     -0.83653871	     -0.37206347	     -0.15742822	     -1.11259649	     -0.39531744	     -0.13927027	     -2.03396023	     -0.39531744	     -0.09688477	     -2.03396023	     -0.32555554	     -0.07871835	     -1.70586975	     -0.30230157	     -0.04843815	     -1.29579847	     -0.27904760	     -0.60551076	     -9.46309325	     -2.06930541	      0.00000000	      0.00000000	     -0.00000000	      0.00000000	      0.00000000	     64.42642089	     -8.10349739	     -0.61882646	     36.28881160	     19.79956890	      0.00000000	      5.00000014	     73.83615081	     -6.65688951	     19.94462687	     28.22573251	     28.90560932	      0.00000000	      5.00000014
     11.29200000	    -51.07544060	      3.10284600	      4.18394858	     -0.35947792	      0.99383978	      0.03690999	     94.50706096	    -10.87923350	     -0.72000303	     69.40702756	      1.21138115	     -4.39858468	    -10.79639378	      0.00000000	    131.81911212	     -5.70470859	     -0.79884219	     97.21740924	      1.69676388	      8.69762319	      2.37214322	      0.00000000	     -0.08461438	     -0.77587523	     -0.35072625	     -0.15713736	     -1.03191405	     -0.37264664	     -0.13901296	     -1.88646303	     -0.37264664	     -0.09670577	     -1.88646303	     -0.30688547	     -0.07857291	     -1.58216477	     -0.28496508	     -0.04834866	     -1.20183073	     -0.26304469	     -0.60439203	     -8.77685576	     -1.95063421	      0.00000000	      0.00000000	     -0.00000000	      0.00000000	      0.00000000	     64.64130261	     -8.11907324	     -0.36790433	     36.24421616	     19.72075003	      0.00000000	      5.00000014	     73.76137698	     -6.58011136	     19.47263980	     28.23739699	     28.73841601	      0.00000000	      5.00000014
     11.30000000	    -51.00479199	      2.75255176	      3.62318192	     -0.35972264	      0.99357592	      0.03731308	     95.32299991	    -10.37848676	     -0.80443409	     71.88375215	      1.25460815	     -4.48822266	    -11.10414602	      0.00000000	    130.89486193	     -5.78968139	     -0.34551961	     95.16526381	      1.66094719	      8.76334862	      2.21470898	      0.00000000	     -0.08422601	     -0.72091289	     -0.25058309	     -0.15641613	     -0.95881414	     -0.26624453	     -0.13837492	     -1.75282760	     -0.26624453	     -0.09626191	     -1.75282760	     -0.21926020	     -0.07821228	     -1.47008556	     -0.20359876	     -0.04812674	     -1.11669406	     -0.18793732	     -0.60161799	     -8.15511078	     -1.39366796	      0.00000000	      0.00000000	     -0.00000000	      0.00000000	      0.00000000	     64.78594006	     -8.13804466	     -0.27570465	     36.24447961	     19.68718571	      0.00000000	      5.00000014	     73.68221638	     -6.49842454	     19.25807424	     28.29140756	     28.66599581	      0.00000000	      5.00000014
     11.30800000	    -50.95839583	      2.42440370	      3.40725942	     -0.35997076	      0.99347787	      0.03717633	     96.26838379	    -10.33895976	     -0.98886960	     74.40850618	      1.29867342	     -5.09252050	    -11.52466899	      0.00000000	    129.72810042	     -5.66709058	     -0.23317848	     92.82093580	      1.62003094	      9.06283962	      2.10451000	      0.00000000	     -0.08460359	     -0.66734674	     -0.22298027	     -0.15711732	     -0.88757117	     -0.23691653	     -0.13899523	     -1.62258687	     -0.23691653	     -0.09669344	     -1.62258687	     -0.19510773	     -0.07856289	     -1.36085347	     -0.18117147	     -0.04834249	     -1.03372010	     -0.16723520	     -0.60431497	     -7.54915981	     -1.24014935	      0.00000000	      0.00000000	     -0.00000000	      0.00000000	      0.00000000	     64.94039326	     -8.13220763	     -0.01111510	     36.17728332	     19.62493625	      0.00000000	      5.00000014	     73.55386479	     -6.41558216	     18.68307300	     28.32363216	     28.48672145	      0.00000000	      5.00000014
